<svg width="21" height="19" viewBox="0 0 21 19" fill="none" xmlns="http://www.w3.org/2000/svg">
    <path
            d="M7.16316 0.383255C8.96208 0.383255 10.4191 1.84031 10.4191 3.63924V4.29043C10.4191 4.64859 10.1261 4.94163 9.76794 4.94163C7.96901 4.94163 6.51196 3.48458 6.51196 1.68565V1.03445C6.51196 0.676293 6.805 0.383255 7.16316 0.383255ZM2.27919 1.68565H4.23277C4.77408 1.68565 5.20957 2.12113 5.20957 2.66244C5.20957 3.20375 4.77408 3.63924 4.23277 3.63924H2.27919C1.73788 3.63924 1.30239 3.20375 1.30239 2.66244C1.30239 2.12113 1.73788 1.68565 2.27919 1.68565ZM0.976794 4.61603H5.53517C6.07647 4.61603 6.51196 5.05152 6.51196 5.59282C6.51196 6.13413 6.07647 6.56962 5.53517 6.56962H0.976794C0.435487 6.56962 0 6.13413 0 5.59282C0 5.05152 0.435487 4.61603 0.976794 4.61603ZM1.30239 8.5232C1.30239 7.9819 1.73788 7.54641 2.27919 7.54641H4.23277C4.77408 7.54641 5.20957 7.9819 5.20957 8.5232C5.20957 9.06451 4.77408 9.5 4.23277 9.5H2.27919C1.73788 9.5 1.30239 9.06451 1.30239 8.5232ZM11.0703 1.03445C11.0703 0.676293 11.3634 0.383255 11.7215 0.383255C13.5205 0.383255 14.9775 1.84031 14.9775 3.63924V4.29043C14.9775 4.64859 14.6845 4.94163 14.3263 4.94163C12.5274 4.94163 11.0703 3.48458 11.0703 1.68565V1.03445ZM16.2799 0.383255C18.0788 0.383255 19.5359 1.84031 19.5359 3.63924V4.29043C19.5359 4.64859 19.2428 4.94163 18.8847 4.94163C17.0858 4.94163 15.6287 3.48458 15.6287 1.68565V1.03445C15.6287 0.676293 15.9217 0.383255 16.2799 0.383255ZM19.5359 6.89522V7.54641C19.5359 9.34534 18.0788 10.8024 16.2799 10.8024C15.9217 10.8024 15.6287 10.5094 15.6287 10.1512V9.5C15.6287 7.70107 17.0858 6.24402 18.8847 6.24402C19.2428 6.24402 19.5359 6.53706 19.5359 6.89522ZM14.3263 6.24402C14.6845 6.24402 14.9775 6.53706 14.9775 6.89522V7.54641C14.9775 9.34534 13.5205 10.8024 11.7215 10.8024C11.3634 10.8024 11.0703 10.5094 11.0703 10.1512V9.5C11.0703 7.70107 12.5274 6.24402 14.3263 6.24402ZM10.4191 6.89522V7.54641C10.4191 9.34534 8.96208 10.8024 7.16316 10.8024C6.805 10.8024 6.51196 10.5094 6.51196 10.1512V9.5C6.51196 7.70107 7.96901 6.24402 9.76794 6.24402C10.1261 6.24402 10.4191 6.53706 10.4191 6.89522ZM0.142449 13.2281C0.0651196 12.6298 0.529097 12.1048 1.13145 12.1048H19.7068C20.3092 12.1048 20.7732 12.6298 20.6999 13.2281C20.4435 15.2712 18.8928 16.8667 16.9311 17.233V17.3144C16.9311 18.0347 16.3491 18.6167 15.6287 18.6167H5.20957C4.48918 18.6167 3.90718 18.0347 3.90718 17.3144V17.233C1.94545 16.8667 0.394788 15.2712 0.142449 13.2281Z"
            fill="#F39D1A"/>
</svg>